<?xml version="1.0" encoding="UTF-8"?><svg id="a" xmlns="http://www.w3.org/2000/svg" viewBox="0 0 1000 1000"><path d="m783.28,538.34c17.71,0,34.61-6.6,47.62-18.63l84.47-77.99c14.37-13.24,22.6-32.06,22.6-51.6s-8.24-38.35-22.6-51.57l-84.47-77.99c-13.01-12.03-29.9-18.63-47.62-18.63h-259.88v-57.31c35.9-10.27,62.38-42.99,62.38-82.13,0-47.29-38.49-85.78-85.78-85.78s-85.78,38.49-85.78,85.78c0,39.12,26.51,71.86,62.38,82.13v57.31H172.4c-38.7,0-70.2,31.5-70.2,70.2v155.98c0,38.7,31.5,70.2,70.2,70.2h304.2v39.97H216.72c-17.74,0-34.63,6.62-47.59,18.65l-84.5,77.97c-14.37,13.24-22.6,32.06-22.6,51.6s8.24,38.35,22.58,51.57l84.5,78.01c13.01,12.03,29.9,18.63,47.62,18.63h259.88v288.59h46.8v-288.59h304.2c38.7,0,70.2-31.5,70.2-70.2v-156.01c0-38.7-31.5-70.2-70.2-70.2h-304.2v-39.94h259.88v-.02Z" style="fill:#004b94;"/><path d="m238.74,321.9c2.42,0,5.69-.18,9.8-.56l3.36-.28c4.48-.37,8.02-.56,10.64-.56,2.98,0,6.53.19,10.64.56.56,5.6.84,12.7.84,21.28l-.28,9.52v9.24c-.19,4.3-.28,10.18-.28,17.64,0,4.67.09,7.84.28,9.52v39.2c0,25.39-1.31,46.1-3.92,62.16-4.11,9.7-12.56,16.56-25.34,20.58-12.79,4.01-27.67,6.02-44.66,6.02-5.04,0-9.98-.19-14.84-.56-1.68-4.86-2.52-10.27-2.52-16.24s.56-13.16,1.68-21v-.84l.28-2.52,5.88.28c7.84,0,15.36-.84,22.54-2.52,7.19-1.68,12.08-4.3,14.7-7.84.18-9.14.28-24.36.28-45.64,0-28.18.28-47.78.84-58.8v-39.48c2.98.56,6.34.84,10.08.84Zm34.16-49.56c.37,10.46.56,18.58.56,24.36-2.24,2.99-7,4.48-14.28,4.48-2.8,0-6.44-.18-10.92-.56-1.68-.18-4.86-.28-9.52-.28s-8.4.1-10.64.28c0-3.92-.19-9.05-.56-15.4l-.28-4.48c-.38-8.21-.47-15.49-.28-21.84l45.64.84c0,5.04.09,9.24.28,12.6Z" style="fill:#94ffd6;"/><path d="m353.82,452.1l-.56.28h.28c-4.48,2.99-9.62,5.37-15.4,7.14-5.79,1.78-11.67,2.66-17.64,2.66-12.32,0-21.84-2.98-28.56-8.96-5.23-4.66-7.84-20.06-7.84-46.2,0-7.65.18-19.32.56-35,.37-13.44.56-23.05.56-28.84,0-6.34-.19-13.44-.56-21.28,9.89-1.49,19.97-2.05,30.24-1.68h13.16c.37,5.6.56,16.43.56,32.48,0,10.46.18,19.79.56,28,.18,2.43.28,5.6.28,9.52.74,12.51,2.98,20.35,6.72,23.52,1.49.75,3.54,1.12,6.16,1.12,3.36,0,6.3-1.21,8.82-3.64,2.52-2.42,3.96-6.44,4.34-12.04.37-5.22.56-9.05.56-11.48,0-6.34-.28-12.88-.84-19.6-.19-2.24-.38-5.55-.56-9.94-.19-4.38-.28-8.26-.28-11.62,0-9.7.46-17.73,1.4-24.08,4.85-1.3,8.77-2.1,11.76-2.38,2.98-.28,6.34-.32,10.08-.14,1.68.19,4.57.28,8.68.28s8.49-.18,12.6-.56c0,22.4.09,39.02.28,49.84.37,24.27.56,42.66.56,55.16,0,8.96-.19,21.84-.56,38.64l-6.72-.28c-3.92,0-7.56.09-10.92.28-5.6.56-11.39.84-17.36.84-6.54,0-9.8-.66-9.8-1.96-.38-2.42-.56-5.69-.56-9.8v-.28Z" style="fill:#94ffd6;"/><path d="m511.46,369.22c-8.78,0-18.29-1.02-28.56-3.08.18-.74.28-1.96.28-3.64,0-3.92-1.22-7.18-3.64-9.8-2.43-2.61-5.98-3.73-10.64-3.36-2.8.94-5.09,2.48-6.86,4.62-1.78,2.15-2.66,4.53-2.66,7.14,0,2.99.84,5.79,2.52,8.4,1.68,2.62,4.1,4.58,7.28,5.88h-.28c14,2.06,25.29,4.48,33.88,7.28,8.58,2.8,15.12,7.1,19.6,12.88,5.04,8.22,7.56,16.43,7.56,24.64,0,6.16-1.5,13.44-4.48,21.84-4.29,8.96-11.25,15.59-20.86,19.88-9.62,4.29-20.68,6.34-33.18,6.16-20.35.74-36.64-3.36-48.86-12.32-12.23-8.96-18.34-21.74-18.34-38.36,7.46-.93,15.12-1.4,22.96-1.4l26.88.56c.18,4.48,1.96,8.17,5.32,11.06,3.36,2.9,7.09,4.34,11.2,4.34,2.98,0,5.6-1.16,7.84-3.5,2.24-2.33,3.26-5.46,3.08-9.38.56-4.85-.94-8.26-4.48-10.22-3.55-1.96-8.87-3.68-15.96-5.18l-4.2-.84c-7.66-1.68-13.44-3.36-17.36-5.04-10.27-3.92-18.25-9.56-23.94-16.94-5.7-7.37-8.54-15.07-8.54-23.1,0-8.58,2.89-16.61,8.68-24.08,5.78-7.46,13.62-12.6,23.52-15.4,6.72-1.86,16.52-2.8,29.4-2.8,13.62,0,25.94,1.31,36.96,3.92,8.96,3.74,15.54,9.76,19.74,18.06,4.2,8.31,6.3,18.06,6.3,29.26l-4.48,1.4c-4.67.75-9.9,1.12-15.68,1.12Z" style="fill:#94ffd6;"/><path d="m355.16,672.68c9.7-.37,18.29-.84,25.76-1.4l3.92-.28c1.3-.18,2.66-.23,4.06-.14,1.4.1,2.56.14,3.5.14h6.44c.74,7.47,1.12,11.76,1.12,12.88,0,.94-.19,3.83-.56,8.68l-.28,3.08-.28,6.16c0,1.31.18,3.46.56,6.44h-43.68c0,29.68-.1,47.88-.28,54.6,2.8,3.55,7.84,6.16,15.12,7.84,7.28,1.68,14.84,2.52,22.68,2.52l5.88-.28v2.52l.28,1.12v-.28c1.12,7.84,1.68,14.84,1.68,21s-.84,11.39-2.52,16.24c-4.86.37-9.8.56-14.84.56-16.99,0-31.88-2-44.66-6.02-12.79-4.01-21.24-10.87-25.34-20.58-1.68-10.08-2.8-20.11-3.36-30.1-.56-9.98-.84-21.42-.84-34.3v-14c-2.43.19-4.62.24-6.58.14-1.96-.09-3.69-.14-5.18-.14h-8.4l.84-36.96c5.04.19,11.66.28,19.88.28l.28-53.48c4.1-.37,7.65-.56,10.64-.56s6.53.19,10.64.56l1.96.28c4.48.38,7.93.56,10.36.56,3.54,0,7.18-.28,10.92-.84v50.96l.28,2.8Z" style="fill:#74c6ff;"/><path d="m464.08,667.36c1.12-.18,3.45-.28,7-.28,2.24,0,3.82.1,4.76.28,6.53.38,12.74,1.64,18.62,3.78,5.88,2.15,10.59,5,14.14,8.54,5.41,4.3,8.96,11.02,10.64,20.16,1.68,9.15,2.52,19.79,2.52,31.92v9.24c-.56,15.87-1.5,29.22-2.8,40.04-1.31,10.83-3.55,18.11-6.72,21.84-3.74,5.23-9.1,8.87-16.1,10.92-7,2.05-15.17,3.08-24.5,3.08-3.55,0-8.5-.19-14.84-.56-5.98-.38-10.55-.56-13.72-.56-9.9-1.87-18.58-6.06-26.04-12.6-5.79-5.6-9.8-12.64-12.04-21.14-2.24-8.49-3.36-18.06-3.36-28.7l-.28-31.92c-.56-5.04.04-12.32,1.82-21.84,1.77-9.52,3.59-14.93,5.46-16.24,2.05-5.22,7.42-9.24,16.1-12.04,8.68-2.8,18.43-4.2,29.26-4.2.93.19,4.29.28,10.08.28Zm-16.52,63.98c-.19,3.27-.28,5.74-.28,7.42l-.28,5.6c0,4.67-.19,9.8-.56,15.4.18,4.11,1.77,7.47,4.76,10.08,2.98,2.62,6.34,3.92,10.08,3.92s7.46-.84,11.2-2.52c1.12-.56,2.52-3.64,4.2-9.24l.28-1.4c1.12-9.33,1.68-16.14,1.68-20.44s-.38-8.49-1.12-12.04c-.94-4.85-2.76-8.68-5.46-11.48-2.71-2.8-6.12-4.2-10.22-4.2-.75,0-2.24.19-4.48.56-4.67,1.5-7.38,3.55-8.12,6.16l-1.12,4.48c-.19,1.87-.38,4.44-.56,7.7Z" style="fill:#74c6ff;"/><path d="m570.77,696.48c6.16,38.83,9.61,58.71,10.36,59.64,7.65-28.37,13.72-56.84,18.2-85.4,1.68.19,4.11.28,7.28.28l14.84-.28c4.66-.37,10.26.1,16.8,1.4,1.68,7.1,3.82,20.35,6.44,39.76,2.98,22.03,5.5,36.68,7.56,43.96,1.49-5.04,3.08-11.76,4.76-20.16,1.68-8.4,2.8-13.9,3.36-16.52,1.86-8.96,3.78-17.82,5.74-26.6,1.96-8.77,3.78-15.58,5.46-20.44,2.98,0,7.65-.18,14-.56,6.72-.37,12.13-.56,16.24-.56,2.24,0,7,.28,14.28.84-4.3,11.95-8.12,24.55-11.48,37.8-3.36,13.26-7.28,30.34-11.76,51.24-5.23,23.9-9.34,41.44-12.32,52.64-5.04.93-13.72,1.4-26.04,1.4h-14c-3.18-.19-8.87-.28-17.08-.28-1.12-5.22-2.43-13.25-3.92-24.08l-3.08-19.32c-.94,4.3-1.96,10.55-3.08,18.76-.19,1.68-.66,5-1.4,9.94-.75,4.95-1.59,9.48-2.52,13.58-6.16.93-15.59,1.4-28.28,1.4s-22.87-.1-32.2-.28c-8.96-54.5-19.04-102.66-30.24-144.48,4.85.94,10.26,1.4,16.24,1.4l8.68-.28c1.86-.18,4.66-.28,8.4-.28,3.54,0,7.28.28,11.2.84h3.64c1.12,5.23,2.42,13.44,3.92,24.64Z" style="fill:#74c6ff;"/><path d="m763.54,682.34c-.1-.09-.05-.14.14-.14,4.48-2.98,9.66-5.36,15.54-7.14,5.88-1.77,11.71-2.66,17.5-2.66,12.32,0,21.84,2.99,28.56,8.96,5.22,4.67,7.84,20.07,7.84,46.2,0,7.66-.19,19.32-.56,35-.38,13.44-.56,23.06-.56,28.84,0,6.35.18,13.44.56,21.28-10.27,1.49-20.35,2.05-30.24,1.68h-13.16c-.38-5.6-.56-16.42-.56-32.48v-14c0-9.14-.19-15.77-.56-19.88l-.28-1.68v-1.96c-.38-5.22-.8-9.33-1.26-12.32-.47-2.98-1.68-5.78-3.64-8.4-1.96-2.61-5-3.92-9.1-3.92-2.99,0-5.7,1.31-8.12,3.92-2.43,2.62-3.74,6.54-3.92,11.76-.19,2.8-.28,7.1-.28,12.88,0,4.67.18,11.48.56,20.44.37,9.34.56,16.34.56,21,0,8.4-.38,15.87-1.12,22.4-5.04,1.3-9.1,2.1-12.18,2.38s-6.49.32-10.22.14c-1.68-.19-4.39-.28-8.12-.28-4.3,0-8.5.18-12.6.56,0-22.4-.1-39.01-.28-49.84-.38-24.26-.56-42.65-.56-55.16,0-9.14.18-22.12.56-38.92,5.97.75,10.64,1.12,14,1.12,3.17,0,6.25-.18,9.24-.56l4.76-.56c4.1-.37,7.28-.56,9.52-.56,4.48,0,6.9.66,7.28,1.96.37,2.24.56,5.51.56,9.8v.28c.18,0,.23-.04.14-.14Z" style="fill:#74c6ff;"/><path d="m486.37,557.3l.2-4.8v-4l.2-2.4v-2c3.6-1.6,9.13-2.4,16.6-2.4s11.73.47,13.6,1.4c.13.13.27.53.4,1.2.13.67.2,1.4.2,2.2,0,1.07-.13,3.47-.4,7.2l-1.2,15-28.8-.2c-.53-3.2-.8-6.93-.8-11.2Z" style="fill:#74c6ff;"/></svg>